<svg xmlns="http://www.w3.org/2000/svg" version="1.1" xmlns:xlink="http://www.w3.org/1999/xlink" xmlns:svgjs="http://svgjs.dev/svgjs" width="100%" height="100%" viewBox="0 0 1000 600"><rect width="1000" height="600" x="0" y="0" fill="#0a192f"/><g><rect width="333.3333333333333" height="333.3333333333333" rx="13.333333333333334" ry="13.333333333333334" y="149.29906275999792" fill="#177afb" transform="matrix(0.9836566346711427,0,0,0.9836566346711427,0,-10.801815034314828)" x="127.0768356323242"/><path d="M226.5370485811408 390.96573728158944L172.00286813543946 240.96573223458077L202.97034437033736 240.96573223458077L241.50397300975635 360.16364142711825L280.45105260024206 240.96573223458077L310.6743171232198 240.96573223458077L350.07619275987895 359.7088453809449L386.70794702439105 240.96573223458077L415.4841332186353 240.96573223458077L365.04311718849453 390.96573728158944L335.10926833126337 390.96573728158944L294.67376531693753 277.30807083334616L256.4708974383718 390.96573728158944L226.5370485811408 390.96573728158944Z " fill="#0a192f" transform="matrix(0.9836566346711427,0,0,0.9836566346711427,0,-10.801815034314828)"/><path d="M543.7434992347368 389.26737205422296L543.7434992347368 240.96573427980928L579.8029363132189 240.96573427980928Q616.2566313244347 240.96573427980928 637.5768872253371 258.98028905240676L637.5768872253371 258.98028905240676Q660.62581252361 278.26860022306664 660.62581252361 315.2681908334521L660.62581252361 315.2681908334521Q660.62581252361 352.2677814438375 638.2137654243684 371.4651100146358L638.2137654243684 371.4651100146358Q617.3180949894868 389.26737205422296 580.864399978271 389.26737205422296L580.864399978271 389.26737205422296L543.7434992347368 389.26737205422296ZM638.759661023538 315.38950096660096L638.759661023538 315.38950096660096Q638.759661023538 258.13111812036516 578.4078697820077 258.13111812036516L578.4078697820077 258.13111812036516L565.0940826689263 258.13111812036516L565.0940826689263 372.19297081352863L579.5906435802085 372.19297081352863Q625.6278391101798 372.19297081352863 635.6662526282435 338.95399433075625L635.6662526282435 338.95399433075625Q638.759661023538 328.40001274681026 638.759661023538 315.38950096660096ZM740.9027931348315 390.96571391830616L740.9027931348315 390.96571391830616Q680.5510018933012 390.96571391830616 680.5510018933012 332.00898920798716L680.5510018933012 332.00898920798716Q680.5510018933012 306.6248438465998 697.2918002678362 291.4004221364248L697.2918002678362 291.4004221364248Q712.334256778288 277.5407394241738 731.6225679489479 277.5407394241738L731.6225679489479 277.5407394241738Q752.6395485169784 277.5407394241738 764.4672864989867 291.6127148694352L764.4672864989867 291.6127148694352Q775.4458535489537 304.7142092495061 775.4458535489537 326.6713433494398L775.4458535489537 326.6713433494398L775.4458535489537 335.0114150034201L702.7204287262452 335.0114150034201Q702.7204287262452 365.15698309089805 727.3463857554526 371.88969548065666L727.3463857554526 371.88969548065666Q733.2299272131696 373.49705474487837 745.4215955946245 373.49705474487837Q757.6435915093665 373.49705474487837 769.3500193582262 370.19135361657345L769.3500193582262 370.19135361657345L769.3500193582262 388.2059083891709Q757.6435915093665 390.96571391830616 740.9027931348315 390.96571391830616ZM703.2663243254149 319.3320802939371L754.1255976480512 319.3320802939371Q754.1255976480512 309.0813740428631 748.4543489233446 302.0453863202324L748.4543489233446 302.0453863202324Q741.8429466667347 293.94793493254974 730.2275014177367 293.94793493254974L730.2275014177367 293.94793493254974Q717.9751779697074 293.94793493254974 710.3023120480456 301.74211098736043L710.3023120480456 301.74211098736043Q703.2663243254149 308.9903914430015 703.2663243254149 319.3320802939371L703.2663243254149 319.3320802939371ZM825.9715240054308 389.26737205422296L783.7555976696467 279.2390812882571L806.6832128347709 279.2390812882571L836.6468157225255 368.46268421920297L866.701401210142 279.2390812882571L889.5380337754044 279.2390812882571L847.413090039482 389.26737205422296L825.9715240054308 389.26737205422296Z " fill="#177afb" transform="matrix(0.9836566346711427,0,0,0.9836566346711427,0,-10.801815034314828)"/></g></svg>